<svg width="23" height="22" viewBox="0 0 23 22" fill="none" xmlns="http://www.w3.org/2000/svg">
<path d="M19.5017 8.1795L19.1509 7.9925L19.0426 7.93384C18.7814 7.78385 18.5613 7.57645 18.4005 7.32884C18.3833 7.30409 18.368 7.2775 18.3373 7.22617C18.1307 6.90894 18.0304 6.53888 18.0498 6.16559L18.0555 5.776C18.067 5.15267 18.0728 4.83917 17.9808 4.55867C17.8994 4.3091 17.7631 4.07906 17.5812 3.884C17.3761 3.664 17.0915 3.50634 16.5213 3.19284L16.0478 2.93159C15.4805 2.619 15.1959 2.46225 14.894 2.40267C14.6273 2.34988 14.3519 2.35207 14.0861 2.40909C13.7862 2.47325 13.5054 2.63459 12.9448 2.95542L12.9419 2.95725L12.6026 3.15067C12.549 3.18184 12.5212 3.1965 12.4943 3.21117C12.2279 3.35325 11.9308 3.43117 11.6251 3.44034C11.5945 3.44217 11.5628 3.44217 11.5005 3.44217L11.376 3.44125C11.0702 3.43194 10.7711 3.35273 10.5039 3.21025C10.477 3.1965 10.4512 3.18092 10.3975 3.14975L10.0554 2.95359C9.49092 2.62909 9.20821 2.46775 8.90634 2.40267C8.63959 2.34556 8.36316 2.34368 8.09559 2.39717C7.79275 2.45767 7.50909 2.61534 6.9408 2.93067L6.93792 2.93159L6.47025 3.191L6.46546 3.19467C5.90196 3.50634 5.61925 3.664 5.41609 3.88309C5.23504 4.07778 5.09945 4.30716 5.01838 4.55592C4.92734 4.83734 4.93213 5.15084 4.94363 5.77784L4.95034 6.1665C4.95034 6.22609 4.95321 6.25542 4.95225 6.28384C4.94729 6.61688 4.84757 6.94234 4.6638 7.22525C4.63217 7.27659 4.6178 7.30225 4.6015 7.32609C4.43992 7.57558 4.21808 7.78431 3.95463 7.93475L3.8473 7.9925L3.50134 8.17584C2.92442 8.48109 2.63596 8.63417 2.42705 8.85234C2.2413 9.04468 2.10079 9.27286 2.01496 9.5215C1.91913 9.80292 1.91913 10.1173 1.92009 10.748L1.922 11.2641C1.92296 11.8902 1.92488 12.2028 2.02167 12.4823C2.10714 12.7294 2.24664 12.9563 2.43088 13.1478C2.6398 13.3642 2.92538 13.5163 3.4975 13.8207L3.84059 14.0031C3.89905 14.0343 3.92875 14.0489 3.95655 14.0654C4.25686 14.2376 4.50213 14.4852 4.66571 14.7813L4.72992 14.8913C4.89179 15.1837 4.96796 15.5125 4.95034 15.8428L4.94363 16.2159C4.93213 16.8448 4.92734 17.1601 5.01934 17.4415C5.1008 17.6908 5.23688 17.9209 5.41896 18.1162C5.62405 18.3362 5.90963 18.4929 6.47888 18.8073L6.9523 19.0686C7.52059 19.3812 7.80425 19.5379 8.10613 19.5975C8.37284 19.6503 8.64825 19.6481 8.914 19.5911C9.21492 19.5269 9.49571 19.3656 10.0583 19.0429L10.3975 18.8486L10.5058 18.7881C10.7722 18.6469 11.0693 18.5681 11.375 18.5589L11.4996 18.558H11.6242C11.9289 18.5672 12.2279 18.6469 12.4963 18.789L12.5844 18.8394L12.9448 19.0466C13.5102 19.3711 13.7919 19.5324 14.0938 19.5966C14.3604 19.6543 14.6368 19.6568 14.9045 19.6039C15.2064 19.5434 15.492 19.3848 16.0603 19.0695L16.5347 18.8064C17.0982 18.4929 17.3809 18.3362 17.584 18.1171C17.7661 17.9218 17.9003 17.6927 17.9818 17.4443C18.0728 17.1647 18.068 16.8539 18.0565 16.2361L18.0488 15.8328V15.7163C18.0533 15.3831 18.1527 15.0573 18.3363 14.774L18.3986 14.6732C18.5602 14.4237 18.7821 14.2149 19.0455 14.0645L19.1509 14.0086L19.1528 14.0077L19.4988 13.8243C20.0757 13.5182 20.3642 13.366 20.574 13.1478C20.76 12.9553 20.8999 12.7262 20.9852 12.4787C21.081 12.1991 21.081 11.8856 21.0791 11.2623L21.0772 10.7361C21.0762 10.11 21.0753 9.7965 20.9785 9.51692C20.8926 9.27006 20.7528 9.04352 20.5683 8.85234C20.3603 8.636 20.0748 8.48384 19.5036 8.18042L19.5017 8.1795Z" stroke="white" stroke-width="2" stroke-linecap="round" stroke-linejoin="round"/>
<path d="M7.66602 10.9997C7.66602 11.9721 8.06988 12.9048 8.78877 13.5924C9.50766 14.28 10.4827 14.6663 11.4993 14.6663C12.516 14.6663 13.491 14.28 14.2099 13.5924C14.9288 12.9048 15.3327 11.9721 15.3327 10.9997C15.3327 10.0272 14.9288 9.09458 14.2099 8.40695C13.491 7.71932 12.516 7.33301 11.4993 7.33301C10.4827 7.33301 9.50766 7.71932 8.78877 8.40695C8.06988 9.09458 7.66602 10.0272 7.66602 10.9997Z" stroke="white" stroke-width="2" stroke-linecap="round" stroke-linejoin="round"/>
</svg>
