<svg width="16" height="16" viewBox="0 0 16 16" fill="none" xmlns="http://www.w3.org/2000/svg">
<path d="M4.64592 4.64604C4.69236 4.59948 4.74754 4.56253 4.80828 4.53733C4.86903 4.51212 4.93415 4.49915 4.99992 4.49915C5.06568 4.49915 5.13081 4.51212 5.19155 4.53733C5.2523 4.56253 5.30747 4.59948 5.35392 4.64604L7.99992 7.29304L10.6459 4.64604C10.6924 4.59955 10.7476 4.56267 10.8083 4.53752C10.8691 4.51236 10.9342 4.49941 10.9999 4.49941C11.0657 4.49941 11.1308 4.51236 11.1915 4.53752C11.2522 4.56267 11.3074 4.59955 11.3539 4.64604C11.4004 4.69253 11.4373 4.74772 11.4624 4.80846C11.4876 4.86919 11.5005 4.9343 11.5005 5.00004C11.5005 5.06578 11.4876 5.13088 11.4624 5.19162C11.4373 5.25236 11.4004 5.30755 11.3539 5.35404L8.70692 8.00004L11.3539 10.646C11.4004 10.6925 11.4373 10.7477 11.4624 10.8085C11.4876 10.8692 11.5005 10.9343 11.5005 11C11.5005 11.0658 11.4876 11.1309 11.4624 11.1916C11.4373 11.2524 11.4004 11.3076 11.3539 11.354C11.3074 11.4005 11.2522 11.4374 11.1915 11.4626C11.1308 11.4877 11.0657 11.5007 10.9999 11.5007C10.9342 11.5007 10.8691 11.4877 10.8083 11.4626C10.7476 11.4374 10.6924 11.4005 10.6459 11.354L7.99992 8.70704L5.35392 11.354C5.30743 11.4005 5.25224 11.4374 5.1915 11.4626C5.13076 11.4877 5.06566 11.5007 4.99992 11.5007C4.93417 11.5007 4.86907 11.4877 4.80833 11.4626C4.74759 11.4374 4.6924 11.4005 4.64592 11.354C4.59943 11.3076 4.56255 11.2524 4.53739 11.1916C4.51223 11.1309 4.49929 11.0658 4.49929 11C4.49929 10.9343 4.51223 10.8692 4.53739 10.8085C4.56255 10.7477 4.59943 10.6925 4.64592 10.646L7.29292 8.00004L4.64592 5.35404C4.59935 5.30759 4.56241 5.25242 4.5372 5.19167C4.512 5.13093 4.49902 5.06581 4.49902 5.00004C4.49902 4.93427 4.512 4.86915 4.5372 4.80841C4.56241 4.74766 4.59935 4.69248 4.64592 4.64604Z" fill="#E63946"/>
</svg>
