<svg width="55" height="54" viewBox="0 0 55 54" fill="none" xmlns="http://www.w3.org/2000/svg">
<path d="M18.9023 52.887C18.9584 52.8482 22.1696 50.4724 22.2239 50.4294C22.5537 50.2021 22.8534 49.9019 23.1034 49.5285L54.4482 2.73065C55.1922 1.2694 53.5821 0.456658 53.6039 0.475282C52.8098 0.0781968 51.6186 0.475284 51.6186 0.475284C51.5615 0.512415 51.6723 0.430518 51.6186 0.475284C51.5615 0.512415 49.0705 2.73065 49.0705 2.73065L48.5003 3.34696L19.9819 33.0904L4.42728 24.2676C3.81701 23.9213 2.55768 24.4464 2.55768 24.4464C0.0445717 25.4603 0.0445715 27.0502 0.0445715 27.0502C-0.0969051 27.1425 0.161546 28.1053 0.0442693 28.2427L18.9023 52.887Z" fill="#BEBEBE"/>
<path d="M0.39163 28.8126L16.4216 51.9C17.7384 53.7964 20.2703 53.7569 21.541 51.8199L53.2932 3.41937C53.8652 2.54759 53.7244 1.31367 52.9758 0.638209C52.2875 0.0173024 51.3037 0.0700619 50.6695 0.762032L19.0896 35.2302L2.62213 25.6938C1.91247 25.2828 1.05038 25.4511 0.500688 26.1083C-0.121602 26.8523 -0.168117 28.0065 0.39163 28.8126Z" fill="#FFFBFB"/>
</svg>
