<svg width="36" height="36" viewBox="0 0 36 36" fill="none" xmlns="http://www.w3.org/2000/svg">
<rect x="0.4" y="0.4" width="35.2" height="35.2" rx="4.6" fill="#FEFEFE" stroke="#D4D8DD" stroke-width="0.8"/>
<path fill-rule="evenodd" clip-rule="evenodd" d="M16.7772 25.0853C17.1858 25.5409 17.7103 25.7912 18.2545 25.7912H18.2553C18.802 25.7912 19.3289 25.5409 19.7382 25.0846C19.9575 24.8422 20.3314 24.8224 20.5735 25.0411C20.8165 25.2598 20.8362 25.6349 20.6177 25.8773C19.9804 26.5855 19.1419 26.9756 18.2553 26.9756H18.2538C17.3695 26.9748 16.5326 26.5847 15.8977 25.8765C15.6792 25.6341 15.6989 25.2591 15.9419 25.0411C16.1848 24.8216 16.5587 24.8414 16.7772 25.0853ZM18.2938 10C21.7999 10 24.1552 12.7335 24.1552 15.2861C24.1552 16.5991 24.4889 17.1558 24.843 17.7464C25.1932 18.3291 25.59 18.9907 25.59 20.2414C25.3147 23.4367 21.9821 23.6973 18.2938 23.6973C14.6055 23.6973 11.2721 23.4367 11 20.2919C10.9977 18.9907 11.3944 18.3291 11.7446 17.7464L11.8683 17.5381C12.1727 17.0143 12.4324 16.4447 12.4324 15.2861C12.4324 12.7335 14.7877 10 18.2938 10ZM18.2938 11.1843C15.5371 11.1843 13.6156 13.3462 13.6156 15.2861C13.6156 16.9276 13.1605 17.6864 12.7582 18.3559C12.4356 18.8936 12.1808 19.3184 12.1808 20.2414C12.3125 21.7305 13.2946 22.513 18.2938 22.513C23.2655 22.513 24.2783 21.6958 24.4092 20.1901C24.4068 19.3184 24.1521 18.8936 23.8295 18.3559C23.4272 17.6864 22.9721 16.9276 22.9721 15.2861C22.9721 13.3462 21.0506 11.1843 18.2938 11.1843Z" fill="#1D3557"/>
</svg>
