<svg width="21" height="22" viewBox="0 0 21 22" fill="none" xmlns="http://www.w3.org/2000/svg">
<path d="M12.4583 20.75C12.1821 20.75 11.9171 20.6403 11.7218 20.4449C11.5264 20.2496 11.4167 19.9846 11.4167 19.7083V11.375C11.4167 11.0987 11.5264 10.8338 11.7218 10.6384C11.9171 10.4431 12.1821 10.3333 12.4583 10.3333H18.7083C18.9846 10.3333 19.2496 10.4431 19.4449 10.6384C19.6403 10.8338 19.75 11.0987 19.75 11.375V19.7083C19.75 19.9846 19.6403 20.2496 19.4449 20.4449C19.2496 20.6403 18.9846 20.75 18.7083 20.75H12.4583ZM2.04167 12.4167C1.7654 12.4167 1.50045 12.3069 1.3051 12.1116C1.10975 11.9162 1 11.6513 1 11.375V3.04167C1 2.7654 1.10975 2.50045 1.3051 2.3051C1.50045 2.10975 1.7654 2 2.04167 2H8.29167C8.56793 2 8.83289 2.10975 9.02824 2.3051C9.22359 2.50045 9.33333 2.7654 9.33333 3.04167V11.375C9.33333 11.6513 9.22359 11.9162 9.02824 12.1116C8.83289 12.3069 8.56793 12.4167 8.29167 12.4167H2.04167ZM7.25 10.3333V4.08333H3.08333V10.3333H7.25ZM2.04167 20.75C1.7654 20.75 1.50045 20.6403 1.3051 20.4449C1.10975 20.2496 1 19.9846 1 19.7083V15.5417C1 15.2654 1.10975 15.0004 1.3051 14.8051C1.50045 14.6097 1.7654 14.5 2.04167 14.5H8.29167C8.56793 14.5 8.83289 14.6097 9.02824 14.8051C9.22359 15.0004 9.33333 15.2654 9.33333 15.5417V19.7083C9.33333 19.9846 9.22359 20.2496 9.02824 20.4449C8.83289 20.6403 8.56793 20.75 8.29167 20.75H2.04167ZM3.08333 18.6667H7.25V16.5833H3.08333V18.6667ZM13.5 18.6667H17.6667V12.4167H13.5V18.6667ZM11.4167 3.04167C11.4167 2.7654 11.5264 2.50045 11.7218 2.3051C11.9171 2.10975 12.1821 2 12.4583 2H18.7083C18.9846 2 19.2496 2.10975 19.4449 2.3051C19.6403 2.50045 19.75 2.7654 19.75 3.04167V7.20833C19.75 7.4846 19.6403 7.74955 19.4449 7.9449C19.2496 8.14025 18.9846 8.25 18.7083 8.25H12.4583C12.1821 8.25 11.9171 8.14025 11.7218 7.9449C11.5264 7.74955 11.4167 7.4846 11.4167 7.20833V3.04167ZM13.5 4.08333V6.16667H17.6667V4.08333H13.5Z" fill="white"/>
</svg>
