<svg width="22" height="22" viewBox="0 0 22 22" fill="none" xmlns="http://www.w3.org/2000/svg">
  <path fill-rule="evenodd" clip-rule="evenodd" d="M10.9997 5.41663C11.8739 5.41663 12.5826 4.70796 12.5826 3.83377C12.5826 2.95959 11.8739 2.25092 10.9997 2.25092C10.1255 2.25092 9.41687 2.95959 9.41687 3.83377C9.41687 4.70796 10.1255 5.41663 10.9997 5.41663ZM14.1426 3.83377C14.1426 5.31093 13.1235 6.55007 11.7501 6.8865V10.2506H18.8572C19.2714 10.2506 19.6072 10.5864 19.6072 11.0006L19.6072 11.0098V15.0842C20.9807 15.4206 21.9999 16.6598 21.9999 18.137C21.9999 19.8728 20.5928 21.2799 18.8571 21.2799C17.1213 21.2799 15.7142 19.8728 15.7142 18.137C15.7142 16.6597 16.7335 15.4204 18.1072 15.0842V11.7506H3.89295V15.1132C5.26652 15.4496 6.28571 16.6888 6.28571 18.166C6.28571 19.9018 4.8786 21.3089 3.14285 21.3089C1.4071 21.3089 0 19.9018 0 18.166C0 16.6887 1.01928 15.4495 2.39295 15.1132V11.0288L2.39308 11.0147L2.39295 11.0006C2.39295 10.5864 2.72873 10.2506 3.14295 10.2506H10.2501V6.88666C8.87627 6.55047 7.85686 5.31117 7.85686 3.83377C7.85686 2.09802 9.26397 0.690918 10.9997 0.690918C12.7355 0.690918 14.1426 2.09802 14.1426 3.83377ZM18.8571 19.7199C19.7313 19.7199 20.4399 19.0112 20.4399 18.137C20.4399 17.2628 19.7313 16.5541 18.8571 16.5541C17.9829 16.5541 17.2742 17.2628 17.2742 18.137C17.2742 19.0112 17.9829 19.7199 18.8571 19.7199ZM3.14285 19.7489C4.01704 19.7489 4.72571 19.0402 4.72571 18.166C4.72571 17.2918 4.01704 16.5832 3.14285 16.5832C2.26867 16.5832 1.56 17.2918 1.56 18.166C1.56 19.0402 2.26867 19.7489 3.14285 19.7489Z" fill="white"/>
</svg>
